<svg viewBox="1000 1000 23503 5670" xmlns="http://www.w3.org/2000/svg">
  <!-- fond -->
  <path fill="#fff" d="M1000 1000h23503v5670h-23503z"/>
  <!-- Marianne -->
  <g>
    <path d="M2145 1884c11-11 22-22 32-34 20-23 40-44 63-64 7-6 14-12 21-16 2-2 2-6 4-8-9 4-15 11-25 15-2 0-4-2-2-4 7-5 14-10 20-15h-1c-2 0-2-2-2-4-25-4-43 13-60 28-4 2-8-2-9-2-28 9-49 34-77 45v-4c-11 4-22 11-34 13-17 4-32 2-47 2-23 2-46 7-69 12-1 0-1 0-2 1-12 3-24 8-35 14l-4 4c-4 4-8 9-13 11-12 6-21 16-31 25-1 1-2 1-3 1-10 10-20 20-30 29-1 1-4 1-6 1 0-1 1-1 1-2 2-3 3-5 5-8l6-9c3-4 5-8 8-11 1-1 1-2 0-2-1-1-2-1-3-1 9-9 21-17 32-24-1 0-3-1-2-2 1-2 2-3 3-5 0-1 0-1 1-2 0-1-1-1-1-2l-9 6c-5 4-8 12-15 12h-3c-1 0-2 0-2-1v-1c0-1 1-1 1-2s1-1 1-2c0 0 0-1 1-1 0-1 1-2 1-2 0-1 1-1 1-2 1-1 2-3 2-4 0-1 1-1 1-2 1-1 1-2 2-3 1-2 0-3-1-3 3-5 8-8 13-11h-1c7-4 15-8 22-12l3-3c-11 4-20 9-30 15 0 0-2 1-3 2 0 0-2 1-5-2v-1c2-4 8-6 11-9 2 0 4 0 4 2 61-47 144-36 214-60 6-4 11-8 17-11 9-4 17-13 28-19 15-11 26-25 32-43 0-2-2-4-2-4-25 26-53 47-83 62-40 21-83 17-125 23 2-4 6-4 9-4 0-6 4-8 8-11h6c2 0 2-4 4-4 4 0 10-2 8-2-6-8-17 6-26 0 4-4 2-9 6-11h8c0-4 4-8 4-8 28-17 55-30 81-45-6 0-9 6-15 2 4 0 0-6 4-6 21-6 38-17 59-25-8 0-13 6-21 0 4-2 6-6 11-6v-6c0-2 2-2 4-2-2 0-4-2-4-2 2-4 8-2 11-6-2 0-6 0-6-2 6-8 15-9 25-11-2-4-8 0-8-4 0-2 2-2 4-2h-4c-4-2-2-6-2-8 11-13 11-30 17-45-2 0-4 0-4-2-19 21-49 28-77 36h-13c-9 4-23 4-32-2-8-4-11-9-19-15-15-9-30-17-47-23-47-15-96-23-145-21 21-11 44-12 66-19 32-9 62-21 96-19-6-2-13 0-19 0-26-2-53 6-81 11-19 4-36 11-55 15-11 4-17 15-30 13v-6c19-23 42-45 72-47 34-6 66 0 100 4 25 2 47 8 72 13 9 0 11 15 19 17 11 4 23 0 34 8 0-4-2-8 0-11 8-8 17 2 25-2 15-9-13-26-21-40 0-2 2-4 2-4 15 13 26 28 45 38 9 4 32 9 28-2-9-21-28-38-44-57v-8c-4 0-4-2-6-4v-8c-8-4-6-11-9-17-6-9-2-23-6-34-4-11-6-21-8-32-6-32-13-60-17-91-4-36 21-64 38-96 13-23 28-45 53-60 6-23 21-42 36-60 15-18 40-30 58-38 26-12 50-19 50-19h-1304v1e3h927c36-26 72-38 122-63 24-10 78-35 96-53m-290-136c-4 0-11 2-9-2 2-9 15-9 23-13 4-2 9-6 13-4 4 6 9 4 13 8-12 11-27 6-40 11m-290-41s-2-2-2-4c25-32 43-62 61-96 25-13 45-32 64-53 32-34 66-64 106-83 15-6 34-4 49 2-6 8-15 6-23 11-2 0-4 0-6-2 2-2 2-4 2-6-19 21-45 30-60 55-11 19-19 43-43 49-8 2 2-6-2-4-59 36-100 80-146 131m157-125c-2 4-4 4-6 8-2 4-4 6-8 8-2 0-4 0-4-2 2-8 8-15 15-17 3-1 3 1 3 3m88 283c-1 2-3 4-5 6 2 0 4 2 2 3-4 4-9 8-14 10h-3c-2 2-5 4-7 7-2 2-13 1-10-2 5-4 9-9 14-13 3-2 6-5 8-8 1-2 2-3 4-4 3-2 13-3 11 1m-34-15c-8 5-15 10-22 15-8 5-17 8-25 12-1-1-2-1-3-1-7 4-13 9-19 15l-3 3-3 3-4 4c-1 1-1 2-3 3-1 1-4 1-4-1-1 1-2 1-3 2-1 1-2 1-3 2h-2c-2 2-5 4-7 6-4 4-8 7-11 12v1l-1 1s0 1-1 1c0 1-1 1-1 2 0 0-1 1-2 1l-1-1s0-1-1-1c-1-1-1-2-2-3v-1c2-2 4-4 6-7 1-1 1-2 2-2 1-1 2-3 3-4 0-1 1-1 1-2 2-3 4-5 6-8l1-1c1-1 2-3 3-4s1-2 2-4v-1c1-2 1-3 2-4v-1c0-1 0-1 1-2 0-1 0-2 1-3v-1c2-4 5-7 8-10h-1c-3 2-5 4-7 6-2 2-6-1-3-3 2-1 3-3 4-4 3-3 6-7 10-10 2-2 4-3 6-4l1-1c1-2 3-3 4-5 18-17 49-17 72-28 9-4 21 2 30 0 6 0 11 0 17 4-17 3-32 14-48 24m39-132c-2-2 6 0 8-4h-15c-2 0-2-2-2-4-9 2-21 6-30 8-13 4-25 13-40 17-21 8-38 25-60 32-2 0-2-2-2-4 2-6 9-8 13-13 0-2 0-4-2-4 15-21 36-32 55-49v-6c6-8 15-11 19-21 2-6 10-13 19-17-2-2-6-2-6-6-8 0-15 4-23-2 4-3 8-5 12-7-2 0-3-1-4-3-2-4 4-8 9-9 8-2 17-2 23-8-13-2-28 4-42-4 9-25 25-45 47-57 2 0 6 0 6 2 0 9-6 17-15 19 15 4 30 4 45 11-2 4-6 2-8 2 9 6 21 2 30 9-6 6-11 0-17 0 59 17 121 30 170 68-42 21-85 30-130 40-6 0-9 0-15-2 0 2 0 6-2 6-8 0-13 0-19 4-7 6-18 8-24 2" fill="black"/>
    <path d="M3755 1e3h-1074s2 0 10 5c9 5 20 11 27 14 14 7 27 16 36 30 4 6 9 17 6 25-4 9-6 25-15 28-11 6-26 6-40 4-8 0-15-2-23-4 28 11 55 25 74 51 2 4 9 6 17 6 2 0 2 4 2 6-4 4-8 6-6 11h6c9-4 8-23 21-17 9 6 13 19 8 28-8 8-15 13-23 19-2 4-2 9 0 13 6 8 8 15 9 23 6 13 8 28 13 42 8 28 15 57 13 85 0 15-8 28-2 43 4 15 13 26 21 40 8 11 15 19 21 30 11 19 32 38 23 59-6 13-26 11-40 19-11 9-2 25 4 34 9 17-11 28-25 34 4 6 11 4 13 8 2 9 11 15 6 25-8 11-30 17-19 34 8 13 3 28-2 42-6 17-21 25-34 28-11 4-25 4-36 2-4-2-8-4-11-4-32-4-64-13-96-13-9 2-19 4-26 7-9 6-16 13-23 20-1 2-3 3-4 5-1 1-2 2-2 3l-2 2c-6 7-10 14-15 22 0 1-1 1-1 1 0 1-1 2-2 3-6 11-11 23-14 35-13 43-7 80 2 89 2 2 62 21 104 40 20 9 33 15 45 23h1055v-1e3z" fill="black"/>
    <path d="M2745 1366c8 2 19 2 19 6-4 15-26 19-38 34h-6c-6 4-4 13-9 13-6-2-11 0-17 2 8 8 17 13 28 11 2 0 6 4 6 8 0 0 2 0 4-2 2 0 4 0 4 2v8c-6 8-15 4-23 6 15 4 30 4 44 0 11-4 0-23 8-32-4 0 0-6-4-6 4-4 8-9 11-11 4 0 9-2 11-6 0-4-8-6-6-9 11-8 21-19 17-30-2-6-17-6-26-10s-21 0-32 2c-9 0-19 6-28 8-13 4-25 11-36 19 13-6 26-8 41-11 11-2 20-4 32-2" stroke-width="1" fill="gray"/>
  </g>
  <!-- texte -->
  <g>
    <!-- PRÉFET DU PAS-DE-CALAIS -->
    <path d="M1e3 3250v-750h247q123 0 195 60 71 60 71 164 0 104-71 163-71 60-195 60h-95v303zm152-433h102q49 0 76-25t27-70q0-43-28-68-27-25-75-24h-102zm497 433v-750h229q124 0 195 60 72 60 71 164 0 67-31 116-31 50-88 78l235 332h-182l-199-303h-78v303zm152-433h86q48 0 74-24 27-25 27-71 0-43-27-68t-74-24h-86zm565 433v-750h437v130h-285v173h242v130h-242v187h285v130zm148-814 121-145h156l-139 145zm476 814v-750h437v130h-285v173h242v130h-242v317zm581 0v-750h437v130h-285v173h242v130h-242v187h285v130zm563-611v-139h615v139h-231v611h-152v-611zm-3134 1696v-750h294q87 0 163 30 75 30 126 81 51 51 81 120 29 69 29 144t-29 144-81 120q-51 51-126 81-75 30-163 30zm152-138h145q104 0 171-68 69-69 69-169 0-101-69-168-68-68-171-68h-145zm686-155v-457h153v469q0 75 40 118 40 42 112 42 70 0 110-42 40-42 40-118v-469h153v457q0 147-81 231t-223 83q-141 0-223-83-81-84-81-231zm1095 293v-750h247q123 0 195 60 71 60 71 164 0 104-71 163-71 60-195 60h-95v303zm152-433h102q49 0 76-25t27-70q0-43-28-68-27-25-75-24h-102zm338 433 283-750h199l284 750h-161l-72-195h-300l-72 195zm280-325h206l-103-281zm543 221 111-102q34 44 77 68 43 24 88 25 45 0 71-24 26-23 26-63 0-24-14-44-15-20-40-33-24-14-55-28-31-15-62-29-32-14-63-34t-55-44q-24-24-39-61-15-37-15-81 0-91 68-154 68-63 172-63 157 0 263 126l-112 100q-72-94-150-94-39 0-62 23-24 22-25 56 0 21 12 39 12 17 32 31 20 13 45 26 26 12 54 25 29 13 57 26 29 14 55 34 26 19 45 44 20 24 32 57 12 33 12 75-2 102-73 163-71 61-176 61-92 0-160-31-67-32-119-94zm609-104v-131h289v131zm421 208v-750h295q87 0 162 30 75 30 126 81 51 51 81 120 29 69 29 144t-29 144q-29 69-81 120-51 51-126 81-75 30-162 30zm152-138h145q104 0 171-68 69-69 69-169 0-101-69-168-68-68-171-68h-145zm700 138v-750h437v130h-285v173h242v130h-242v187h285v130zm534-208v-131h289v131zm408-14q-29-73-30-153t30-152q29-73 80-127 52-54 127-86 75-32 162-31 99 0 181 40 82 41 135 112l-120 93q-33-48-84-75-50-28-112-28-105 0-174 73-69 73-68 181t68 181q69 73 174 73 62 0 112-28t84-75l120 92q-53 72-135 113t-181 40q-87 0-162-31-75-32-127-86-51-54-80-126zm729 222 284-750h199l284 750h-162l-71-195h-301l-71 195zm281-325h206l-103-281zm612 325v-750h153v612h285v138zm519 0 284-750h199l284 750h-162l-71-195h-300l-72 195zm281-325h206l-103-281zm613 325v-750h152v750zm305-104 110-102q34 44 77 68 43 24 89 25 45 0 70-24 26-23 26-63 0-24-14-44-15-20-39-33-24-14-55-28-31-15-63-29t-63-34q-31-20-55-44-24-24-39-61-15-37-15-81 0-91 68-154 68-63 172-63 157 0 263 126l-111 100q-72-94-151-94-39 0-62 23-24 22-24 56 0 21 11 39 12 17 32 31 20 13 46 26 26 12 53 25 29 13 57 26 29 14 55 34 26 19 45 44 20 24 32 57 12 33 12 75-2 102-73 163-71 61-176 61-92 0-160-31-67-32-118-94z"/>
    <!-- ligne verticale -->
    <path d="M13942 2500v1835" fill="none" stroke="gray" stroke-width="35"/>
    <!-- DDTM -->
    <path d="M14442 3098v-550h216q64 0 119 22 55 22 93 59 38 38 59 88 22 51 22 106t-22 105q-21 51-59 88-38 38-93 60-55 22-119 22zm112-101h106q76 0 126-50 50-50 50-124 0-74-50-124-50-50-126-50h-106zm496-383q-19-20-19-46t19-46q20-20 46-20t45 20q20 19 20 46 0 26-20 46-18 19-45 19t-46-19zm-4 484v-396h100v396zm219 0v-396h100v39q46-47 105-47 16 0 34 6v104q-22-5-44-5-33 0-58 15-24 15-37 36v248zm281-198q0-59 23-107 23-48 70-78 47-29 110-29 82 0 132 50 50 50 50 128 0 30-6 56h-277q4 49 36 77 32 27 83 27 32 0 58-12 26-13 42-35l72 57q-28 37-73 59-45 21-100 21-52 0-94-17-42-17-70-46-27-30-42-68-14-39-14-83zm108-55h178q-1-31-23-53-22-22-60-22-75 0-95 75zm358 137q-15-39-15-82t15-82q15-39 43-68 27-30 69-47 42-17 92-17 52 0 95 22 43 21 72 58l-79 61q-32-46-90-46-49 0-81 33-32 34-32 86 0 52 32 86 32 33 83 33 28 0 50-12 23-13 38-34l79 61q-29 37-72 59-43 21-95 21-50 0-92-17-42-17-69-46-28-30-43-69zm402-189v-91h74v-99h101v99h121v91h-121v160q0 62 63 62 37 0 59-9v87q-28 13-77 13-73 0-109-39-37-40-37-114v-160zm390-179q-20-20-20-46t20-46q19-20 46-20t45 20q19 19 19 46 0 26-19 46-19 19-45 19t-46-19zm-5 484v-396h100v396zm218-90q-26-49-26-108 0-59 26-108 28-49 78-77 49-29 112-29t113 29q50 28 77 77 27 49 27 108 0 59-27 108-27 49-77 77-50 29-113 29t-112-29q-50-28-78-77zm110-194q-33 34-33 86 0 52 33 86t82 33q48 0 80-34 32-34 32-85 0-52-32-86-32-33-80-33-50 0-82 33zm389 284v-396h100v31q49-47 117-47 68 0 111 46 43 46 43 130v236h-101v-232q0-39-21-62-20-23-57-23-57 0-92 58v259zm691-91q-23-49-23-107 0-58 23-106 24-49 71-78 46-30 107-30 74 0 123 43v-221h100v590h-100v-28q-50 44-123 44-61 0-107-30-47-29-71-77zm111-193q-30 33-30 86 0 53 30 86 31 33 81 33 69 0 109-58v-122q-41-58-109-58-50 0-81 33zm382 86q0-59 23-107 23-48 70-78 47-29 110-29 82 0 132 50 50 50 50 128 0 30-6 56h-277q4 49 36 77 32 27 83 27 32 0 58-12 26-13 42-35l72 57q-28 37-73 59-45 21-100 21-52 0-94-17-42-17-70-46-27-30-42-68-14-39-14-83zm108-55h178q-1-31-23-53-22-22-60-22-75 0-95 75zm54-206 82-131h108l-94 131zm321 653v-590h99v28q49-44 124-44 46 0 84 17 38 17 64 47 25 29 39 68 14 39 14 82t-14 82q-14 39-39 69-26 29-64 46-38 17-84 17-75 0-124-44v222zm99-331 1-1q41 59 108 59 51 0 81-33 31-34 31-86 0-52-31-86-30-33-81-33-67 0-108 59l-1-1zm387 33q0-46 34-79 34-32 98-43l119-20v-10q0-31-21-50-21-19-55-19-29 0-52 13-23 12-37 35l-74-56q27-37 70-58t96-21q83 0 128 44 46 43 46 112v256h-101v-37q-19 24-51 38-32 15-66 15-61 0-98-32-36-33-36-88zm99-5q0 20 15 32 15 13 40 13 62 0 97-56v-55l-93 17q-59 10-59 49zm367 109v-396h99v39q46-47 105-47 16 0 34 6v104q-22-5-43-5-34 0-58 15-25 15-38 36v248zm296-305v-91h74v-99h101v99h121v91h-121v160q0 62 63 62 37 0 59-9v87q-28 13-77 13-73 0-110-39-36-40-36-114v-160zm349 107q0-59 24-107 23-48 70-78 47-29 110-29 82 0 132 50 50 50 50 128 0 30-6 56h-278q5 49 37 77 32 27 83 27 32 0 58-12 26-13 42-35l71 57q-28 37-73 59-44 21-100 21-51 0-93-17-43-17-70-46-27-30-42-68-15-39-15-83zm109-55h178q-1-31-23-53-23-22-60-22-76 0-95 75zm374 253v-396h100v30q47-46 109-46 40 0 72 18 32 18 52 51 25-32 56-50 31-19 73-19 65 0 106 44 41 44 41 124v244h-101v-240q0-36-19-57t-52-20q-48 0-82 56 0 5 0 17v244h-101v-240q0-36-18-57-19-20-52-20-16 0-30 5-14 5-24 15-10 10-17 18-6 8-13 20v259zm695-198q0-59 23-107 24-48 71-78 47-29 109-29 82 0 133 50 50 50 50 128 0 30-6 56h-278q5 49 37 77 31 27 83 27 31 0 57-12 27-13 43-35l71 57q-28 37-73 59-45 21-100 21-51 0-94-17-42-17-69-46-27-30-42-68-15-39-15-83zm109-55h178q-1-31-24-53-22-22-60-22-75 0-94 75zm374 253v-396h100v31q49-47 117-47 67 0 110 46 44 46 44 130v236h-102v-232q0-39-20-62t-57-23q-58 0-92 58v259zm435-305v-91h74v-99h100v99h121v91h-121v160q0 62 63 62 37 0 59-9v87q-27 13-76 13-73 0-110-39-36-40-36-114v-160zm364 201q0-46 34-79 35-32 98-43l120-20v-10q0-31-21-50-21-19-55-19-30 0-53 13-23 12-36 35l-74-56q27-37 70-58t96-21q83 0 128 44 46 43 46 112v256h-101v-37q-19 24-51 38-32 15-67 15-60 0-97-32-37-33-37-88zm99-5q0 20 15 32 16 13 41 13 62 0 97-56v-55l-94 17q-59 10-59 49zm367 109v-590h100v590zm191-198q0-59 24-107 23-48 70-78 47-29 110-29 82 0 132 50 50 50 50 128 0 30-6 56h-277q4 49 36 77 32 27 83 27 32 0 58-12 26-13 42-35l72 57q-29 37-73 59-45 21-101 21-51 0-93-17-43-17-70-46-27-30-42-68-15-39-15-83zm109-55h178q-1-31-23-53-22-22-60-22-75 0-95 75zm-9540 1046q-24-49-24-107t24-106q24-49 70-78 46-30 107-30 74 0 123 43v-221h101v590h-101v-28q-50 44-123 44-61 0-107-30t-70-77zm111-193q-31 33-31 86t31 86q30 33 80 33 69 0 109-58v-122q-40-58-109-58-50 0-80 33zm381 86q0-59 23-107 24-48 71-78 46-29 109-29 82 0 132 50 51 50 51 128 0 29-6 56h-278q5 49 36 77 32 27 83 27 32 0 58-12 26-13 43-35l71 57q-28 37-73 59-45 21-100 21-52 0-94-17-42-17-69-47-28-29-43-67-14-39-14-83zm109-55h178q-1-31-24-53-22-23-60-23-75 0-94 76zm335 195 66-61q41 53 91 53 23 0 35-11 13-12 13-30 0-14-10-24-10-11-26-17-17-8-36-15-20-7-40-17-19-10-36-23-16-13-26-36-10-22-10-51 0-53 39-87 40-35 101-35 45 0 84 19 39 19 62 49l-67 60q-36-46-78-46-22 0-34 10-11 9-11 26 0 13 10 24 10 10 26 17 17 7 36 14 20 7 40 17 19 10 36 23 16 13 26 35 10 22 10 51-1 60-42 94-42 35-101 35-97 0-158-74zm557-247v-91h73v-99h101v99h121v91h-121v160q0 62 63 62 37 0 59-9v87q-27 13-76 13-74 0-110-39-37-40-37-114v-160zm349 107q0-59 23-107 23-48 70-78 47-29 110-29 82 0 132 50 50 50 50 128 0 29-6 56h-277q4 49 36 77 32 27 83 27 32 0 58-12 26-13 42-35l72 57q-28 37-73 59-45 21-100 21-52 0-94-17-42-17-70-47-27-29-42-67-14-39-14-83zm108-55h178q-1-31-23-53-22-23-60-23-75 0-95 76zm375 253v-396h99v39q46-47 105-47 16 0 34 6v104q-22-5-43-5-34 0-58 15-25 15-38 36v248zm319 0v-396h100v39q45-47 104-47 17 0 35 6v104q-23-5-44-5-33 0-58 15-24 15-37 36v248zm324-484q-20-20-20-46t20-46q19-20 46-20t45 20q19 19 19 46 0 26-19 46-19 19-45 19t-46-19zm-5 484v-396h100v396zm171-305v-91h74v-99h100v99h122v91h-122v160q0 62 63 62 38 0 60-9v87q-28 13-77 13-73 0-110-39-36-40-36-114v-160zm376 215q-27-49-27-108 0-59 27-108 27-49 77-77 50-29 113-29t113 29q50 28 77 77 27 49 27 108 0 59-27 108-27 49-77 77-50 29-113 29t-113-29q-50-28-77-77zm109-194q-32 34-32 86 0 52 32 86t83 33q48 0 79-34 32-34 32-85 0-52-32-86-31-33-79-33-50 0-83 33zm394-200q-19-20-19-46t19-46q20-20 46-20t46 20q19 19 19 46 0 26-19 46-19 19-46 19t-46-19zm-4 484v-396h100v396zm220 0v-396h99v39q46-47 105-47 16 0 34 6v104q-22-5-43-5-34 0-58 15-25 15-38 36v248zm280-198q0-59 23-107 24-48 71-78 46-29 109-29 82 0 132 50 51 50 51 128 0 29-6 56h-278q5 49 36 77 32 27 83 27 32 0 58-12 26-13 43-35l71 57q-28 37-73 59-45 21-100 21-52 0-94-17-42-17-69-47-28-29-43-67-14-39-14-83zm109-55h178q-2-31-24-53-22-23-60-23-75 0-94 76zm335 195 66-61q41 53 91 53 23 0 35-11 13-12 13-30 0-14-10-24-10-11-26-17-17-8-36-15-20-7-40-17-19-10-36-23-16-13-26-36-10-22-10-51 0-53 39-87 40-35 101-35 45 0 84 19 39 19 62 49l-67 60q-36-46-78-46-22 0-34 10-11 9-11 26 0 13 10 24 10 10 26 17 17 7 36 14 20 7 40 17 19 10 36 23 16 13 26 35 10 22 10 51-1 60-42 94-42 35-101 35-97 0-158-74zm577-140q0-59 23-107 24-48 71-78 47-29 109-29 82 0 133 50 50 50 50 128 0 29-6 56h-278q5 49 37 77 31 27 82 27 32 0 58-12 27-13 43-35l71 57q-28 37-73 59-45 21-100 21-51 0-94-17-42-17-69-47-27-29-42-67-15-39-15-83zm109-55h178q-1-31-24-53-22-23-60-23-75 0-94 76zm325-52v-91h74v-99h100v99h122v91h-122v160q0 62 63 62 38 0 60-9v87q-28 13-77 13-73 0-110-39-36-40-36-114v-160zm593 214q-24-49-24-107t24-106q23-49 70-78 46-30 107-30 74 0 123 43v-221h100v590h-100v-28q-50 44-123 44-61 0-107-30-47-29-70-77zm110-193q-30 33-30 86t30 86q31 33 81 33 69 0 109-58v-122q-41-58-109-58-50 0-81 33zm382 86q0-59 23-107 23-48 70-78 47-29 110-29 82 0 132 50 50 50 50 128 0 29-6 56h-277q4 49 36 77 32 27 83 27 32 0 58-12 26-13 42-35l72 57q-28 37-73 59-45 21-100 21-52 0-94-17-42-17-70-47-27-29-42-67-14-39-14-83zm108-55h178q-1-31-23-53-22-23-60-23-75 0-95 76zm586 253v-590h100v590zm199-104q0-46 35-79 34-32 97-43l120-20v-10q0-31-21-50-21-19-55-19-29 0-52 13-23 11-37 35l-74-56q27-37 70-58t96-21q83 0 128 44 46 43 46 112v256h-101v-37q-19 24-51 38-32 15-67 15-60 0-97-32t-37-88zm99-5q0 20 15 32 16 13 41 13 62 0 97-56v-55l-94 17q-59 10-59 49zm579 109v-396h100v30q47-46 109-46 40 0 72 18 33 17 52 51 25-32 56-50 31-19 73-19 65 0 106 44 41 44 41 124v244h-101v-240q0-36-19-57t-52-20q-48 0-82 56 0 5 0 17v244h-101v-240q0-36-18-57-18-20-52-20-16 0-30 5-14 5-24 15-10 10-16 18-7 8-14 20v259zm695-198q0-59 24-107 23-48 70-78 47-29 110-29 81 0 132 50 50 50 50 128 0 29-6 56h-278q5 49 37 77 32 27 83 27 31 0 58-12 26-13 42-35l71 57q-28 37-73 59-45 21-100 21-51 0-94-17-42-17-69-47-27-29-42-67-15-39-15-83zm109-55h178q-1-31-24-53-22-23-59-23-76 0-95 76zm374 253v-396h100v39q46-47 104-47 17 0 35 6v104q-22-5-44-5-33 0-58 15-24 15-37 36v248z"/>
  </g>
  <!-- devise -->
  <path d="M3484 6391c22 0 41 17 31 56l-101 27c16-48 46-83 70-83m56 164h-20c-25 30-53 54-80 54-28 0-42-17-42-54 0-15 2-31 5-45l164-54c32-76-7-109-52-109-78 0-166 136-166 243 0 51 24 79 62 79 45 0 91-43 129-114m-26-244 93-85v-12h-62l-55 98h24zm-349 82h54l-86 236c-8 20 3 40 24 40 61 0 134-52 162-126h-15c-22 31-70 65-106 72l79-222h81l10-34h-79l30-85h-31l-56 85-67 9zm-56-12c7-22-8-34-19-34-47 0-104 43-126 102h15c15-22 41-46 66-50l-91 236c-8 22 8 34 20 34 45 0 98-43 120-102h-15c-15 22-41 46-66 50zm9-94c20 0 37-17 37-37s-17-37-37-37c-21 0-37 17-37 37 0 21 16 37 37 37m-439 126c14 0 22 22 0 71l-64 142c-12 27 1 44 27 44 16 0 23-4 30-21l63-166c29-36 83-74 107-74 17 0 15 14 4 36l-97 185c-9 18 3 40 24 40 47 0 104-43 126-102h-17c-15 22-41 46-66 50l83-168c11-21 16-41 16-57 0-27-15-45-44-45-41 0-76 46-126 103v-44c0-31-10-59-38-59-33 0-63 52-87 102h15c17-24 32-37 44-37m-65 6c11-39 5-72-24-72-37 0-49 25-85 103v-44c0-31-10-59-38-59-33 0-63 52-87 102h15c16-23 31-37 43-37 14 0 22 22 0 71l-64 142c-12 27 1 44 27 44 16 0 23-4 30-21l61-166c18-22 34-41 54-62h68zm-349-28c22 0 41 17 31 56l-101 27c17-48 46-83 70-83m56 164h-20c-25 30-53 54-80 54-28 0-42-17-42-54 0-15 2-31 5-45l164-54c32-76-6-109-52-109-78 0-166 136-166 243 0 51 24 79 62 79 45 0 91-43 129-114m-375-162h54l-86 236c-8 20 3 40 24 40 61 0 135-52 162-126h-15c-22 31-70 65-106 72l79-222h81l10-34h-79l30-85h-31l-56 85-67 9zm-287 184c0-73 81-172 127-172 10 0 20 1 28 4l-47 126c-27 33-69 73-89 73-12 0-19-9-19-31m249-244-25-2-28 28h-5c-119 0-247 148-247 265 0 27 15 45 44 45 35 0 69-50 108-103l-2 19c-5 54 12 84 40 84 33 0 63-52 86-102h-15c-16 23-31 37-43 37s-21-23 0-71zm-255 86c11-39 5-72-24-72-37 0-49 25-85 103v-44c0-31-10-59-39-59-33 0-63 52-86 102h15c16-23 31-37 43-37 14 0 22 22 0 71l-65 143c-12 27 1 44 27 44 16 0 23-4 30-21l63-167c18-22 34-41 54-62h67zm-419 239 6-18c-79-15-89-15-57-101l30-81h63c39 0 40 17 34 60h23l52-143h-23c-20 34-35 60-78 60h-63l43-117c15-42 22-50 76-50h14c55 0 62 15 62 73h22l18-97h-305l-6 18c63 13 69 19 40 101l-65 177c-30 81-42 88-115 101l-5 18h234zm1513-956c22 0 41 17 31 56l-101 27c16-48 46-83 70-83m56 164h-20c-25 30-53 54-80 54-28 0-42-17-42-54 0-15 2-31 5-45l164-54c32-76-7-109-52-109-78 0-166 136-166 243 0 51 24 79 62 79 45 1 91-43 129-114m-26-244 93-85v-12h-62l-55 98h24zm-349 82h54l-86 236c-8 20 3 40 24 40 61 0 134-52 162-126h-15c-22 31-70 65-106 72l79-222h81l10-34h-79l30-85h-31l-56 85-67 10zm-56-11c7-22-8-34-20-34-47 0-104 43-126 102h15c15-22 41-46 66-50l-91 236c-8 22 8 34 20 34 45 0 98-43 120-102h-15c-15 22-41 46-66 50zm9-94c20 0 37-17 37-37s-17-37-37-37c-21 0-37 17-37 37s16 37 37 37m-290 330 150-398-5-7-104 12v12l20 15c18 14 12 27-4 72l-114 304c-10 18 3 40 24 40 47 0 98-43 120-102h-15c-16 23-48 47-72 52m-306-41c0-73 81-172 127-172 10 0 19 1 28 4l-48 126c-27 33-69 73-89 73-11 1-18-9-18-31m249-243-25-2-28 28h-5c-119 0-247 148-247 265 0 27 15 45 44 45 35 0 69-50 108-103l-2 19c-5 54 12 84 40 84 33 0 63-52 86-102h-15c-16 23-31 37-43 37s-21-23 0-70zm-579 393c0-31 30-51 73-68 14 7 36 15 64 24 45 15 62 21 62 34 0 29-41 51-116 51-56 1-83-11-83-41m123-191c-20 0-27-17-27-36 0-59 28-130 73-130 20 0 27 17 27 36 0 58-29 130-73 130m128 162c0-38-34-52-89-68-47-14-69-18-69-34 0-12 10-27 30-38 78-4 127-74 127-136 0-11-2-21-5-30h53l10-34h-90c-12-8-27-12-44-12-82 0-135 72-135 136 0 41 24 69 62 74-38 18-60 37-60 61 0 14 5 24 17 33-88 26-124 59-124 97 0 41 54 58 118 58 108 1 199-58 199-107m-408-240c39 0 40 17 34 60h23l52-143h-23c-20 34-35 60-78 60h-87l43-117c15-42 23-50 76-50h38c55 0 62 15 62 73h22l18-97h-327l-6 18c63 13 69 19 40 101l-65 177c-30 81-42 88-115 101l-5 18h364l65-103h-25c-42 42-85 79-166 79-97 0-88-5-56-95l30-81h86zm47-244 93-68v-12h-62l-55 80zm1390-511c22 0 41 17 31 56l-101 27c16-49 46-83 70-83m56 164h-20c-25 30-53 54-80 54-28 0-42-17-42-54 0-15 2-31 5-45l164-54c32-76-7-109-52-109-78 0-166 136-166 243 0 51 24 79 62 79 45 0 91-43 129-114m-26-244 93-85v-12h-62l-55 98h24zm-349 81h55l-86 236c-8 20 3 40 24 40 61 0 135-52 162-126h-15c-22 31-70 65-106 72l79-222h81l10-34h-79l30-85h-31l-56 85-67 9v25zm-28 27c11-39 5-72-24-72-37 0-49 25-85 103v-44c0-31-10-59-38-59-33 0-63 52-87 102h15c16-23 31-37 43-37 14 0 22 22 0 71l-64 142c-12 27 1 44 27 44 16 0 23-4 30-21l63-166c18-22 34-41 54-62h66zm-349-28c22 0 41 17 31 56l-101 27c16-49 46-83 70-83m56 164h-20c-25 30-53 54-80 54-28 0-42-17-42-54 0-15 2-31 5-45l164-54c32-76-6-109-52-109-78 0-166 136-166 243 0 51 24 79 62 79 45 0 91-43 129-114m-382 66c-16 0-39-15-39-28 0-4 7-23 16-46l26-70c28-34 72-71 97-71 15 0 26 10 26 31-1 66-61 184-126 184m182-209c0-48-12-66-46-66-42 0-81 45-121 99l84-226-5-7-104 12v12l20 15c18 14 12 28-4 72l-91 239c-8 20-17 44-17 50 0 28 38 55 73 55 79 2 211-143 211-255m-307-31c6-22-8-34-20-34-47 0-104 43-126 102h15c15-22 41-46 66-50l-91 236c-8 22 8 34 20 34 45 0 98-43 120-102h-15c-15 22-41 46-66 50zm10-94c20 0 37-17 37-37s-17-37-37-37c-21 0-37 17-37 37s16 37 37 37m-231-45h-216l-6 18c63 13 69 19 40 101l-65 177c-30 81-42 88-115 101l-5 18h328l71-127h-25c-41 45-88 102-161 102-55 0-63-10-32-95l65-177c30-81 42-88 115-101z"/>
</svg>
