<svg viewBox="0 0 2607 1835" xmlns="http://www.w3.org/2000/svg">
  <!-- fond -->
  <!-- <path fill="#fff" d="M0 0h2607v1835h-2607z"/> -->
  <!-- devise -->
  <path d="M2484 1556c22 0 41 17 31 56l-101 27c16-48 46-83 70-83m56 164h-20c-25 30-53 54-80 54-28 0-42-17-42-54 0-15 2-31 5-45l164-54c32-76-7-109-52-109-78 0-166 136-166 243 0 51 24 79 62 79 45 0 91-43 129-114m-26-244 93-85v-12h-62l-55 98h24zm-349 82h54l-86 236c-8 20 3 40 24 40 61 0 134-52 162-126h-15c-22 31-70 65-106 72l79-222h81l10-34h-79l30-85h-31l-56 85-67 9zm-56-12c7-22-8-34-19-34-47 0-104 43-126 102h15c15-22 41-46 66-50l-91 236c-8 22 8 34 20 34 45 0 98-43 120-102h-15c-15 22-41 46-66 50zm9-94c20 0 37-17 37-37s-17-37-37-37c-21 0-37 17-37 37 0 21 16 37 37 37m-439 126c14 0 22 22 0 71l-64 142c-12 27 1 44 27 44 16 0 23-4 30-21l63-166c29-36 83-74 107-74 17 0 15 14 4 36l-97 185c-9 18 3 40 24 40 47 0 104-43 126-102h-17c-15 22-41 46-66 50l83-168c11-21 16-41 16-57 0-27-15-45-44-45-41 0-76 46-126 103v-44c0-31-10-59-38-59-33 0-63 52-87 102h15c17-24 32-37 44-37m-65 6c11-39 5-72-24-72-37 0-49 25-85 103v-44c0-31-10-59-38-59-33 0-63 52-87 102h15c16-23 31-37 43-37 14 0 22 22 0 71l-64 142c-12 27 1 44 27 44 16 0 23-4 30-21l61-166c18-22 34-41 54-62h68zm-349-28c22 0 41 17 31 56l-101 27c17-48 46-83 70-83m56 164h-20c-25 30-53 54-80 54-28 0-42-17-42-54 0-15 2-31 5-45l164-54c32-76-6-109-52-109-78 0-166 136-166 243 0 51 24 79 62 79 45 0 91-43 129-114m-375-162h54l-86 236c-8 20 3 40 24 40 61 0 135-52 162-126h-15c-22 31-70 65-106 72l79-222h81l10-34h-79l30-85h-31l-56 85-67 9zm-287 184c0-73 81-172 127-172 10 0 20 1 28 4l-47 126c-27 33-69 73-89 73-12 0-19-9-19-31m249-244-25-2-28 28h-5c-119 0-247 148-247 265 0 27 15 45 44 45 35 0 69-50 108-103l-2 19c-5 54 12 84 40 84 33 0 63-52 86-102h-15c-16 23-31 37-43 37s-21-23 0-71zm-255 86c11-39 5-72-24-72-37 0-49 25-85 103v-44c0-31-10-59-39-59-33 0-63 52-86 102h15c16-23 31-37 43-37 14 0 22 22 0 71l-65 143c-12 27 1 44 27 44 16 0 23-4 30-21l63-167c18-22 34-41 54-62h67zm-419 239 6-18c-79-15-89-15-57-101l30-81h63c39 0 40 17 34 60h23l52-143h-23c-20 34-35 60-78 60h-63l43-117c15-42 22-50 76-50h14c55 0 62 15 62 73h22l18-97h-305l-6 18c63 13 69 19 40 101l-65 177c-30 81-42 88-115 101l-5 18h234zm1513-956c22 0 41 17 31 56l-101 27c16-48 46-83 70-83m56 164h-20c-25 30-53 54-80 54-28 0-42-17-42-54 0-15 2-31 5-45l164-54c32-76-7-109-52-109-78 0-166 136-166 243 0 51 24 79 62 79 45 1 91-43 129-114m-26-244 93-85v-12h-62l-55 98h24zm-349 82h54l-86 236c-8 20 3 40 24 40 61 0 134-52 162-126h-15c-22 31-70 65-106 72l79-222h81l10-34h-79l30-85h-31l-56 85-67 10zm-56-11c7-22-8-34-20-34-47 0-104 43-126 102h15c15-22 41-46 66-50l-91 236c-8 22 8 34 20 34 45 0 98-43 120-102h-15c-15 22-41 46-66 50zm9-94c20 0 37-17 37-37s-17-37-37-37c-21 0-37 17-37 37s16 37 37 37m-290 330 150-398-5-7-104 12v12l20 15c18 14 12 27-4 72l-114 304c-10 18 3 40 24 40 47 0 98-43 120-102h-15c-16 23-48 47-72 52m-306-41c0-73 81-172 127-172 10 0 19 1 28 4l-48 126c-27 33-69 73-89 73-11 1-18-9-18-31m249-243-25-2-28 28h-5c-119 0-247 148-247 265 0 27 15 45 44 45 35 0 69-50 108-103l-2 19c-5 54 12 84 40 84 33 0 63-52 86-102h-15c-16 23-31 37-43 37s-21-23 0-70zm-579 393c0-31 30-51 73-68 14 7 36 15 64 24 45 15 62 21 62 34 0 29-41 51-116 51-56 1-83-11-83-41m123-191c-20 0-27-17-27-36 0-59 28-130 73-130 20 0 27 17 27 36 0 58-29 130-73 130m128 162c0-38-34-52-89-68-47-14-69-18-69-34 0-12 10-27 30-38 78-4 127-74 127-136 0-11-2-21-5-30h53l10-34h-90c-12-8-27-12-44-12-82 0-135 72-135 136 0 41 24 69 62 74-38 18-60 37-60 61 0 14 5 24 17 33-88 26-124 59-124 97 0 41 54 58 118 58 108 1 199-58 199-107m-408-240c39 0 40 17 34 60h23l52-143h-23c-20 34-35 60-78 60h-87l43-117c15-42 23-50 76-50h38c55 0 62 15 62 73h22l18-97h-327l-6 18c63 13 69 19 40 101l-65 177c-30 81-42 88-115 101l-5 18h364l65-103h-25c-42 42-85 79-166 79-97 0-88-5-56-95l30-81h86zm47-244 93-68v-12h-62l-55 80zm1390-511c22 0 41 17 31 56l-101 27c16-49 46-83 70-83m56 164h-20c-25 30-53 54-80 54-28 0-42-17-42-54 0-15 2-31 5-45l164-54c32-76-7-109-52-109-78 0-166 136-166 243 0 51 24 79 62 79 45 0 91-43 129-114m-26-244 93-85v-12h-62l-55 98h24zm-349 81h55l-86 236c-8 20 3 40 24 40 61 0 135-52 162-126h-15c-22 31-70 65-106 72l79-222h81l10-34h-79l30-85h-31l-56 85-67 9v25zm-28 27c11-39 5-72-24-72-37 0-49 25-85 103v-44c0-31-10-59-38-59-33 0-63 52-87 102h15c16-23 31-37 43-37 14 0 22 22 0 71l-64 142c-12 27 1 44 27 44 16 0 23-4 30-21l63-166c18-22 34-41 54-62h66zm-349-28c22 0 41 17 31 56l-101 27c16-49 46-83 70-83m56 164h-20c-25 30-53 54-80 54-28 0-42-17-42-54 0-15 2-31 5-45l164-54c32-76-6-109-52-109-78 0-166 136-166 243 0 51 24 79 62 79 45 0 91-43 129-114m-382 66c-16 0-39-15-39-28 0-4 7-23 16-46l26-70c28-34 72-71 97-71 15 0 26 10 26 31-1 66-61 184-126 184m182-209c0-48-12-66-46-66-42 0-81 45-121 99l84-226-5-7-104 12v12l20 15c18 14 12 28-4 72l-91 239c-8 20-17 44-17 50 0 28 38 55 73 55 79 2 211-143 211-255m-307-31c6-22-8-34-20-34-47 0-104 43-126 102h15c15-22 41-46 66-50l-91 236c-8 22 8 34 20 34 45 0 98-43 120-102h-15c-15 22-41 46-66 50zm10-94c20 0 37-17 37-37s-17-37-37-37c-21 0-37 17-37 37s16 37 37 37m-231-45h-216l-6 18c63 13 69 19 40 101l-65 177c-30 81-42 88-115 101l-5 18h328l71-127h-25c-41 45-88 102-161 102-55 0-63-10-32-95l65-177c30-81 42-88 115-101z"/>
</svg>
